<?xml version="1.0" standalone="no"?>
<!DOCTYPE svg PUBLIC "-//W3C//DTD SVG 20010904//EN"
 "http://www.w3.org/TR/2001/REC-SVG-20010904/DTD/svg10.dtd">
<svg version="1.0" xmlns="http://www.w3.org/2000/svg"
 width="1024.000000pt" height="1024.000000pt" viewBox="0 0 1024.000000 1024.000000"
 preserveAspectRatio="xMidYMid meet">
<metadata>
Created by potrace 1.14, written by Peter Selinger 2001-2017
</metadata>
<g transform="translate(0.000000,1024.000000) scale(0.100000,-0.100000)"
fill="#000000" stroke="none">
<path d="M1840 7583 c0 -6 -9 -9 -22 -5 -12 3 -19 1 -15 -5 4 -6 -24 -10 -71
-12 -96 -2 -102 -3 -102 -10 0 -3 -23 -7 -50 -8 -28 -1 -58 -6 -68 -11 -9 -5
-25 -8 -34 -7 -10 2 -18 0 -18 -5 0 -4 -9 -6 -20 -3 -11 3 -20 1 -20 -5 0 -11
-51 -24 -93 -25 -16 0 -31 -6 -34 -13 -2 -7 -11 -10 -19 -7 -8 3 -14 0 -14 -7
0 -6 -4 -8 -10 -5 -5 3 -10 1 -10 -5 0 -8 -6 -8 -20 0 -15 8 -21 6 -30 -10 -6
-11 -15 -18 -20 -15 -5 3 -12 0 -16 -6 -4 -8 -9 -7 -15 2 -6 10 -9 11 -9 2 0
-7 -7 -13 -15 -13 -8 0 -15 -4 -15 -10 0 -5 -9 -10 -19 -10 -11 0 -23 -5 -26
-10 -4 -6 -10 -8 -15 -5 -4 3 -11 -2 -14 -11 -3 -9 -12 -14 -19 -11 -6 2 -18
-3 -25 -12 -11 -13 -12 -13 -7 -1 4 8 -1 6 -9 -4 -9 -11 -16 -17 -16 -13 0 4
-10 1 -23 -8 -13 -8 -27 -12 -32 -8 -4 5 -5 3 -2 -3 4 -6 -16 -23 -48 -39 -30
-15 -55 -29 -55 -32 0 -2 5 -1 12 3 7 4 8 3 4 -4 -4 -7 -16 -12 -27 -12 -13 0
-18 -4 -13 -12 5 -7 2 -9 -9 -5 -11 4 -14 2 -11 -8 4 -10 0 -13 -15 -10 -12 2
-19 0 -17 -4 3 -4 -2 -17 -10 -27 -9 -10 -13 -14 -10 -8 3 6 -1 11 -8 11 -8 0
-12 -6 -9 -14 3 -7 -1 -13 -10 -13 -8 0 -18 -7 -21 -16 -3 -9 -11 -12 -18 -8
-8 5 -7 0 2 -11 9 -11 10 -16 2 -11 -6 4 -12 2 -12 -3 0 -6 -6 -10 -12 -8 -7
1 -12 -4 -11 -10 2 -7 -5 -13 -14 -13 -9 0 -14 -3 -11 -6 7 -7 -45 -63 -53
-58 -4 2 -10 -3 -13 -12 -4 -10 -1 -13 7 -9 6 3 2 -2 -11 -11 -12 -9 -22 -22
-22 -30 0 -7 -10 -16 -21 -19 -13 -5 -17 -10 -11 -14 8 -5 5 -12 -8 -21 -11
-8 -20 -20 -20 -26 0 -6 -7 -17 -15 -24 -8 -7 -15 -23 -15 -37 0 -14 -4 -21
-10 -18 -5 3 -10 -1 -10 -9 0 -9 -5 -16 -11 -16 -5 0 -8 -4 -4 -9 3 -5 -1 -15
-8 -23 -8 -7 -13 -21 -11 -31 1 -9 -2 -17 -7 -17 -6 0 -7 -4 -4 -10 3 -5 2
-10 -2 -10 -5 0 -9 -10 -10 -22 -1 -11 -6 -24 -12 -27 -5 -4 -8 -23 -6 -43 1
-21 0 -36 -4 -35 -3 1 -8 -2 -10 -8 -2 -5 -7 -20 -12 -32 -5 -14 -4 -25 3 -29
8 -5 7 -10 -3 -18 -19 -15 -22 -35 -8 -53 10 -11 10 -13 0 -11 -8 2 -15 -6
-17 -17 -11 -49 -11 -65 0 -65 7 0 7 -3 1 -8 -15 -11 -17 -64 -2 -55 9 5 9 3
1 -8 -6 -8 -10 -22 -9 -31 2 -10 -2 -18 -8 -18 -8 0 -7 -4 2 -9 7 -5 10 -14 7
-20 -4 -6 -1 -11 6 -11 8 0 9 -3 2 -8 -12 -8 -13 -51 -1 -69 5 -7 5 -13 0 -13
-4 0 -8 -13 -8 -30 0 -16 5 -30 10 -30 6 0 11 -15 11 -32 1 -18 4 -49 8 -68 4
-19 8 -45 9 -57 0 -12 5 -19 9 -17 4 3 8 -11 8 -30 0 -20 5 -36 11 -36 5 0 7
-4 4 -10 -3 -5 -2 -10 4 -10 6 0 8 -7 5 -15 -4 -9 1 -18 11 -21 13 -5 14 -9 3
-15 -9 -6 -10 -9 -1 -9 7 0 10 -7 7 -15 -4 -8 -1 -15 5 -15 6 0 11 -9 11 -20
0 -11 5 -20 10 -20 6 0 10 -7 10 -16 0 -10 5 -14 16 -10 10 4 13 2 7 -7 -4 -6
-8 -18 -9 -25 -2 -11 0 -11 14 0 12 10 14 10 8 1 -4 -8 -2 -13 4 -13 6 0 8 -5
5 -10 -3 -6 3 -23 14 -39 12 -16 21 -35 21 -42 0 -7 3 -9 7 -6 10 11 52 -34
46 -49 -3 -9 2 -14 13 -14 9 0 15 -3 12 -6 -8 -7 36 -54 51 -54 6 0 11 -7 11
-16 0 -8 5 -12 10 -9 6 3 10 -1 10 -10 0 -9 5 -13 10 -10 6 3 10 -1 10 -10 0
-9 4 -14 9 -10 5 3 12 -4 16 -15 4 -11 11 -18 16 -15 5 4 12 -1 15 -10 6 -14
9 -14 16 -3 7 9 8 7 5 -10 -3 -12 -1 -20 3 -17 12 8 41 -6 34 -16 -4 -8 0 -10
21 -9 3 0 15 -9 27 -20 12 -11 27 -20 34 -20 6 0 14 -7 18 -15 3 -8 9 -14 13
-13 4 1 18 -3 29 -10 12 -6 25 -8 29 -4 5 4 5 1 1 -5 -4 -8 -1 -13 9 -13 9 0
14 -4 11 -9 -4 -5 2 -7 13 -4 11 3 24 -3 32 -15 9 -12 23 -18 37 -16 14 3 21
0 17 -6 -3 -5 1 -10 10 -10 10 0 13 -5 9 -12 -5 -8 0 -9 14 -6 12 4 22 2 22
-3 0 -4 7 -5 17 -2 12 5 14 3 8 -7 -6 -10 -3 -12 13 -8 13 4 20 1 19 -5 -2
-11 4 -13 39 -16 8 0 13 -5 10 -9 -4 -7 17 -12 62 -15 6 0 12 -4 12 -9 0 -5 4
-6 10 -3 5 3 10 0 10 -8 0 -8 11 -14 28 -14 28 0 92 -23 92 -33 0 -3 12 -6 28
-7 49 -1 53 -3 46 -15 -4 -7 -4 -10 0 -7 4 4 24 3 44 -2 20 -5 46 -12 56 -14
11 -3 22 -8 25 -13 3 -5 18 -8 34 -8 15 1 27 -2 27 -7 0 -4 5 -5 10 -2 6 3 10
0 10 -7 0 -9 3 -9 10 2 8 13 10 13 10 -1 0 -9 7 -19 15 -23 8 -3 15 -2 15 3 0
4 7 8 15 8 8 0 15 -3 15 -7 0 -4 6 -7 13 -7 6 0 28 -7 47 -16 19 -8 45 -13 58
-12 12 1 22 -4 22 -11 0 -7 8 -10 20 -7 11 3 20 1 20 -4 0 -5 12 -10 28 -11
15 -1 29 -7 30 -12 2 -6 8 -7 13 -4 6 3 16 0 24 -6 8 -7 15 -9 15 -6 0 4 8 2
18 -3 11 -6 24 -6 36 1 14 8 17 7 12 -1 -4 -6 -2 -11 4 -11 6 0 18 -6 25 -14
7 -7 30 -12 49 -11 20 1 36 -2 36 -7 0 -4 9 -8 20 -8 11 0 20 -6 20 -12 0 -9
4 -8 10 2 6 10 10 11 10 3 0 -7 9 -13 20 -13 12 0 34 -7 51 -15 16 -9 34 -13
39 -10 5 3 13 -3 19 -12 5 -10 12 -17 15 -15 14 6 27 1 21 -8 -3 -6 1 -7 9 -4
9 3 16 1 16 -5 0 -6 7 -11 15 -11 8 0 15 -5 15 -11 0 -6 7 -9 15 -5 9 3 15 0
15 -9 0 -7 14 -16 30 -20 17 -4 30 -13 30 -21 0 -9 5 -12 10 -9 6 3 10 1 10
-5 0 -14 26 -41 33 -34 2 3 7 -7 11 -20 3 -14 10 -25 14 -25 20 3 23 -3 11
-18 -7 -10 -10 -15 -5 -11 11 9 36 -16 36 -36 0 -9 3 -16 8 -16 4 0 8 -20 9
-45 0 -25 6 -52 13 -59 7 -9 8 -16 1 -20 -7 -5 -7 -15 -1 -32 7 -17 7 -23 0
-19 -6 3 -10 -2 -11 -12 0 -10 -2 -28 -5 -40 -2 -13 -5 -33 -7 -44 -2 -12 -11
-27 -20 -34 -9 -7 -14 -15 -10 -19 3 -3 -4 -18 -18 -33 -13 -14 -18 -23 -12
-19 9 5 11 2 7 -8 -3 -9 -12 -12 -21 -9 -10 4 -14 2 -9 -5 3 -6 -3 -17 -14
-25 -11 -7 -17 -18 -12 -23 4 -4 -1 -2 -11 6 -10 7 -17 9 -16 4 5 -27 -1 -36
-16 -24 -13 11 -14 10 -9 -6 4 -10 4 -16 -1 -12 -4 4 -14 0 -22 -10 -10 -11
-12 -12 -8 -2 4 10 2 9 -8 -2 -8 -10 -17 -15 -20 -11 -4 3 -7 1 -7 -5 0 -6 -9
-9 -20 -7 -11 2 -20 0 -20 -4 0 -5 -12 -16 -26 -26 -18 -11 -24 -12 -18 -4 6
11 5 12 -7 2 -8 -6 -27 -10 -41 -9 -16 2 -29 -3 -32 -10 -3 -8 -18 -14 -33
-14 -15 0 -35 -4 -43 -10 -9 -5 -19 -5 -27 2 -7 6 -13 6 -13 1 0 -5 -75 -9
-170 -9 -113 0 -170 3 -170 10 0 6 -5 4 -10 -4 -9 -13 -10 -13 -10 0 0 12 -2
12 -9 2 -10 -16 -21 -18 -30 -4 -3 6 -20 12 -37 15 -17 3 -40 10 -51 16 -11 5
-23 8 -26 4 -4 -3 -14 0 -24 8 -11 9 -14 10 -9 2 4 -7 2 -13 -3 -13 -6 0 -11
5 -11 10 0 6 -7 10 -16 10 -9 0 -12 5 -8 11 5 8 -4 10 -29 7 -20 -2 -33 0 -30
5 3 4 -4 11 -16 14 -12 3 -21 13 -21 22 0 14 -2 14 -10 1 -8 -13 -10 -12 -10
3 0 15 -6 19 -26 16 -3 0 -13 8 -22 19 -9 10 -25 21 -36 25 -12 5 -16 13 -12
24 4 10 4 14 0 10 -10 -9 -35 13 -28 24 3 5 2 9 -3 8 -22 -4 -32 2 -27 16 4 8
1 15 -6 15 -6 0 -8 4 -5 10 3 6 -1 10 -9 10 -9 0 -15 3 -14 8 4 14 -13 52 -23
52 -6 0 -7 5 -4 10 3 6 2 10 -4 10 -6 0 -7 7 -4 17 5 12 3 14 -7 8 -10 -6 -12
-4 -7 8 3 9 1 22 -6 29 -7 7 -12 24 -11 38 1 14 -4 37 -12 51 -10 20 -10 29
-1 38 8 8 8 11 -2 11 -7 0 -9 5 -6 10 3 6 2 10 -4 10 -5 0 -7 14 -4 31 3 23 1
29 -8 24 -8 -6 -10 -4 -4 6 16 25 12 52 -7 57 -10 2 -18 8 -18 12 0 10 -20 8
-37 -3 -7 -5 -19 -5 -25 -1 -16 10 -50 10 -66 0 -6 -4 -12 -3 -12 3 0 6 -11 6
-30 1 -16 -5 -32 -5 -35 0 -3 4 -21 4 -40 0 -19 -4 -37 -4 -40 0 -2 4 -22 4
-44 0 -22 -4 -45 -3 -52 1 -8 4 -19 3 -25 -2 -8 -7 -14 -6 -19 1 -5 8 -10 8
-20 0 -7 -6 -16 -7 -19 -2 -6 10 -36 9 -54 -2 -6 -4 -18 -4 -24 0 -16 10 -50
10 -66 0 -6 -4 -12 -3 -12 3 0 6 -11 6 -30 1 -16 -5 -32 -5 -35 0 -3 4 -21 4
-40 0 -19 -4 -37 -4 -40 0 -2 4 -22 4 -44 0 -22 -4 -45 -3 -52 1 -8 4 -19 3
-25 -2 -8 -7 -14 -6 -19 1 -5 8 -10 8 -20 0 -7 -6 -16 -7 -19 -2 -6 10 -36 9
-54 -2 -6 -4 -17 -4 -24 0 -23 14 -59 10 -76 -10 -9 -11 -11 -16 -4 -12 6 4
12 2 12 -3 0 -6 -4 -11 -8 -11 -13 0 -6 -118 7 -134 8 -10 9 -16 1 -21 -6 -3
-7 -12 -3 -18 11 -17 11 -57 1 -57 -5 0 -1 -12 9 -26 10 -16 16 -44 16 -73 -1
-25 3 -52 9 -59 6 -7 8 -15 5 -19 -4 -3 -2 -11 3 -18 5 -7 12 -25 14 -41 2
-16 8 -40 14 -54 5 -14 8 -28 5 -32 -2 -5 2 -8 9 -8 10 0 9 -3 -2 -10 -12 -8
-12 -10 3 -16 9 -3 14 -10 11 -16 -3 -5 2 -19 13 -30 12 -14 13 -18 3 -13 -12
7 -13 6 -3 -7 7 -8 10 -18 6 -21 -3 -4 -1 -7 5 -7 7 0 12 -7 12 -15 0 -8 5
-15 11 -15 6 0 9 -9 6 -20 -3 -13 0 -20 9 -20 8 0 15 -9 15 -20 3 -38 4 -42
22 -54 9 -7 17 -21 17 -30 0 -9 5 -16 10 -16 6 0 10 -7 10 -15 0 -9 6 -18 14
-21 8 -3 20 -19 26 -35 7 -16 17 -29 22 -29 5 0 7 -4 4 -9 -3 -5 1 -12 10 -15
8 -3 12 -11 8 -17 -4 -7 -3 -10 2 -7 5 3 15 0 22 -8 7 -8 10 -14 7 -14 -4 0
13 -18 37 -41 23 -22 42 -47 40 -56 -2 -8 1 -12 7 -8 6 3 33 -17 61 -45 29
-30 55 -48 62 -44 6 4 8 3 5 -3 -4 -6 9 -18 29 -28 19 -9 38 -23 41 -31 3 -8
11 -14 19 -14 8 0 23 -8 33 -18 38 -34 51 -43 51 -35 0 4 7 -1 16 -12 8 -11
17 -19 19 -17 3 1 15 2 26 2 17 0 19 -3 10 -14 -10 -12 -8 -13 8 -9 12 3 21 1
21 -6 0 -6 7 -11 15 -11 8 0 15 -6 15 -12 0 -10 2 -10 8 0 7 10 15 8 35 -8 15
-12 27 -19 27 -15 0 3 11 -2 24 -10 19 -13 25 -13 29 -3 3 8 6 6 6 -5 1 -10 5
-15 11 -12 5 3 10 0 10 -7 0 -9 3 -9 10 2 6 9 10 11 10 3 0 -7 7 -10 17 -6 12
5 14 3 8 -7 -5 -8 -3 -11 6 -8 8 3 26 -4 41 -14 16 -11 28 -15 28 -10 0 7 11
6 29 -1 17 -6 27 -15 24 -21 -4 -5 -1 -6 8 0 22 14 39 13 39 -1 0 -9 9 -12 31
-8 22 3 29 1 24 -7 -6 -9 -2 -9 14 -1 17 10 22 9 27 -2 3 -9 13 -13 25 -10 12
3 19 0 19 -8 0 -12 2 -12 9 0 6 9 11 10 15 2 4 -6 31 -11 61 -11 30 0 56 -4
59 -9 3 -5 31 -9 61 -10 31 0 60 -3 65 -6 6 -3 10 -1 10 5 0 6 5 8 10 5 6 -4
8 -10 6 -14 -3 -4 6 -7 19 -7 13 0 21 4 19 8 -6 10 30 11 40 1 10 -10 76 -11
70 -1 -3 4 0 8 5 8 6 0 11 -4 11 -10 0 -5 5 -10 11 -10 5 0 8 4 4 9 -3 5 -1
13 5 16 6 4 9 1 8 -6 -2 -7 9 -13 25 -14 15 -1 27 2 27 7 0 5 6 6 13 1 19 -12
36 -12 43 -1 4 6 10 5 15 -3 6 -10 9 -11 9 -1 0 6 5 12 11 12 5 0 7 -6 3 -12
-6 -10 -4 -10 7 0 7 6 20 12 28 12 14 0 14 -1 1 -10 -12 -7 -10 -9 7 -7 12 0
19 5 17 9 -8 13 21 9 35 -5 11 -9 13 -9 7 1 -9 16 16 16 33 0 11 -11 12 -10 6
0 -5 11 2 13 31 12 22 -1 42 -1 47 0 4 2 11 3 16 4 5 0 13 4 17 9 4 4 33 7 65
7 32 0 60 4 63 8 3 5 20 9 37 10 18 0 36 7 40 14 7 11 9 11 9 0 0 -8 5 -10 12
-6 7 5 26 9 43 10 16 1 43 7 58 13 16 6 32 9 37 6 5 -3 10 -1 12 5 1 5 19 12
38 14 19 2 36 9 38 15 3 9 8 9 17 1 9 -8 14 -7 18 3 3 8 22 17 41 21 20 4 36
11 36 15 0 5 11 7 25 6 14 -2 23 1 19 6 -3 5 4 9 15 9 12 0 21 5 21 11 0 5 4
8 9 4 5 -3 12 -1 16 5 3 5 15 10 25 10 10 0 22 5 26 12 4 7 3 8 -4 4 -7 -4
-12 -5 -12 -2 0 3 10 10 21 17 12 6 19 7 16 2 -4 -5 0 -10 8 -10 8 0 12 4 9 8
-3 5 7 11 21 15 14 3 25 10 25 16 0 5 4 7 9 4 5 -3 12 1 15 10 3 8 10 12 16 9
5 -3 10 -1 10 4 0 6 7 11 15 11 7 0 19 8 24 18 6 9 11 13 11 7 0 -5 10 1 23
15 12 14 18 20 13 13 -15 -23 1 -14 32 17 17 16 36 30 42 30 6 0 8 5 5 10 -3
6 2 10 13 10 10 0 24 11 31 24 7 13 24 29 38 35 13 6 22 15 18 20 -3 5 -1 12
5 16 5 3 10 0 11 -7 0 -7 4 -3 9 10 5 12 14 22 21 22 6 0 9 7 5 15 -3 8 -2 15
3 15 12 0 51 36 51 46 0 5 9 17 20 27 11 9 20 24 20 32 0 8 8 15 18 15 14 0
15 2 2 10 -12 8 -12 10 2 15 15 6 31 35 33 58 0 5 8 14 18 21 9 7 17 16 17 19
0 5 12 36 26 67 1 3 5 15 9 27 4 13 11 21 15 18 4 -2 7 3 7 13 0 24 14 62 23
62 4 0 6 14 4 30 -2 17 1 30 6 30 6 0 10 11 10 25 0 14 4 25 9 25 4 0 7 16 6
35 -1 19 3 35 7 35 5 0 6 5 3 10 -4 6 -2 16 3 23 5 7 9 26 8 42 -2 19 3 32 13
37 14 6 13 7 -2 7 -14 1 -16 5 -8 19 7 13 6 23 -2 32 -9 10 -9 11 1 6 14 -8
13 -11 16 152 1 62 -2 115 -6 118 -5 3 -5 11 -1 17 10 16 12 77 3 77 -5 0 -7
14 -6 30 1 17 -3 30 -8 30 -6 0 -4 5 4 10 8 5 10 10 4 10 -6 0 -10 14 -9 30 1
17 -2 30 -7 30 -5 0 -7 4 -3 9 3 5 1 12 -3 15 -5 3 -8 17 -7 31 2 14 -1 25 -6
25 -5 0 -9 11 -9 24 0 14 -5 28 -11 32 -8 4 -7 9 2 15 11 7 9 9 -5 9 -11 0
-16 3 -13 7 4 3 2 12 -3 19 -6 6 -10 16 -9 20 4 21 -2 35 -12 29 -6 -4 -10 -1
-8 6 3 27 -1 40 -11 34 -5 -3 -10 3 -10 14 0 11 -5 23 -11 27 -8 5 -8 9 1 14
9 6 6 10 -9 15 -13 4 -20 12 -17 20 2 7 -2 16 -10 19 -8 3 -14 12 -14 21 0 8
-7 15 -15 15 -9 0 -15 6 -13 14 2 8 -8 25 -22 40 -47 48 -65 71 -62 79 1 4 -2
7 -8 7 -5 0 -25 16 -45 37 -19 20 -35 33 -35 29 0 -4 -11 4 -24 16 -13 13 -21
26 -19 31 2 4 -3 7 -11 7 -9 0 -16 5 -16 11 0 6 -7 9 -15 5 -9 -3 -15 0 -15 9
0 8 -7 15 -15 15 -8 0 -15 5 -15 11 0 6 -7 9 -15 5 -8 -3 -14 -2 -12 2 1 4 -2
9 -8 11 -5 2 -16 12 -24 23 -7 11 -19 17 -26 14 -7 -2 -16 2 -19 10 -3 9 -10
13 -15 10 -5 -3 -14 1 -21 9 -7 8 -16 12 -21 9 -5 -3 -9 0 -9 5 0 6 -7 11 -15
11 -8 0 -15 5 -15 10 0 6 -11 10 -25 10 -14 0 -25 5 -25 10 0 6 -7 10 -15 10
-8 0 -15 5 -15 11 0 5 -4 8 -9 4 -5 -3 -13 0 -16 6 -4 5 -14 8 -22 5 -8 -3
-12 -2 -9 3 5 8 -22 22 -49 25 -5 1 -16 5 -22 9 -7 5 -13 5 -13 0 0 -4 -4 -3
-8 2 -11 16 -50 35 -71 35 -11 0 -23 5 -26 10 -4 6 -11 8 -16 5 -5 -4 -9 -1
-9 4 0 6 -5 11 -11 11 -5 0 -7 -6 -3 -12 5 -7 -5 -3 -20 10 -16 12 -32 19 -37
16 -5 -3 -15 -2 -21 3 -7 4 -22 9 -32 10 -11 2 -24 7 -30 12 -19 14 -53 19
-70 9 -12 -7 -16 -6 -14 3 2 7 -3 13 -10 14 -7 0 -16 5 -20 11 -4 5 -17 10
-29 11 -70 3 -74 3 -67 15 5 7 2 9 -8 5 -9 -3 -21 0 -28 6 -10 9 -11 9 -5 -3
8 -13 7 -13 -9 0 -10 8 -28 15 -40 16 -32 2 -50 8 -58 18 -4 6 -14 4 -24 -5
-11 -9 -15 -9 -10 -1 4 7 2 12 -4 12 -6 0 -8 5 -4 11 4 8 0 8 -15 0 -16 -9
-21 -9 -21 0 0 6 -7 9 -15 5 -8 -3 -20 0 -27 7 -7 7 -29 13 -48 15 -19 1 -38
8 -42 15 -4 6 -8 9 -8 4 0 -4 -13 -1 -30 8 -23 12 -30 12 -30 3 0 -9 -3 -10
-8 -2 -4 6 -15 10 -24 8 -10 -1 -18 2 -18 8 0 6 -9 8 -20 5 -11 -3 -18 -2 -16
2 3 4 -8 12 -25 18 -16 6 -27 7 -23 2 8 -13 -10 -11 -24 3 -7 7 -12 8 -12 4 0
-5 -11 -1 -25 8 -18 12 -25 13 -25 4 0 -8 -3 -9 -8 -3 -7 10 -27 17 -49 18 -7
0 -14 6 -17 12 -2 7 -15 12 -28 11 -13 -1 -30 6 -39 16 -8 9 -27 19 -42 22
-35 6 -49 15 -42 27 4 5 -3 9 -13 9 -19 0 -46 23 -37 31 2 3 -5 6 -17 6 -12 1
-26 9 -30 18 -5 8 -13 13 -18 10 -5 -3 -7 3 -5 15 2 11 0 19 -5 17 -13 -3 -60
56 -60 76 0 10 -4 16 -8 13 -4 -3 -8 42 -9 99 0 58 4 102 8 99 5 -3 6 2 3 11
-4 8 -1 21 5 29 6 7 8 16 4 19 -3 4 0 7 8 7 11 0 11 2 -1 10 -13 8 -12 10 4
10 11 0 17 3 13 6 -3 4 1 13 9 21 8 8 12 19 9 24 -4 5 1 9 10 9 9 0 13 5 10
10 -3 6 -1 10 5 10 6 0 9 4 5 9 -3 6 4 8 15 6 11 -2 18 0 16 4 -5 8 43 36 57
33 4 -1 7 5 7 14 0 8 5 12 10 9 6 -4 16 -2 23 3 7 6 24 13 37 15 14 2 33 7 43
12 9 4 24 4 33 1 8 -3 13 -2 9 3 -8 14 16 19 53 10 17 -4 34 -3 37 2 3 4 16 4
29 -1 13 -5 27 -6 30 -2 6 5 80 4 122 -2 10 -2 27 1 37 6 9 5 17 5 17 1 0 -4
19 -7 42 -7 35 1 71 -9 101 -29 2 -1 12 5 22 13 17 13 18 13 13 -1 -5 -12 0
-15 23 -14 16 1 27 0 24 -3 -2 -3 3 -11 13 -18 13 -9 19 -9 24 -1 6 9 8 9 8 0
0 -7 7 -13 16 -13 9 0 25 -10 36 -22 11 -13 16 -16 12 -8 -7 12 -5 13 8 3 8
-7 19 -9 23 -5 5 4 4 1 0 -7 -6 -11 -4 -13 9 -8 13 5 19 1 23 -13 3 -11 11
-20 18 -20 6 0 17 -10 23 -22 7 -15 11 -17 11 -8 1 9 7 5 14 -10 8 -14 18 -24
24 -23 6 1 10 -5 9 -15 0 -9 4 -16 10 -15 8 1 10 -6 6 -19 -3 -14 -1 -19 6
-14 6 3 13 2 17 -4 3 -5 0 -10 -7 -10 -8 -1 -6 -6 6 -15 11 -8 16 -21 13 -30
-4 -8 -2 -15 4 -15 6 0 7 -5 4 -11 -4 -5 1 -19 11 -30 13 -15 14 -19 3 -19 -9
0 -10 -3 -4 -8 6 -4 10 -27 9 -52 -3 -51 14 -93 33 -86 7 3 13 1 13 -5 0 -6 5
-7 12 -3 16 10 68 11 68 1 0 -5 5 -5 12 -1 16 10 68 11 68 1 0 -5 5 -5 11 -1
11 6 100 9 124 4 6 -1 12 -1 15 0 19 7 41 7 46 -1 3 -6 11 -5 20 2 11 9 14 8
14 -2 0 -12 2 -12 9 0 6 9 11 10 15 2 4 -6 13 -8 19 -4 19 12 36 12 43 2 3 -6
11 -5 20 2 11 9 14 8 14 -2 0 -12 2 -12 9 0 6 9 11 10 15 2 4 -6 13 -8 19 -4
19 12 36 12 43 2 3 -6 11 -5 20 2 11 9 14 8 14 -2 0 -12 2 -12 9 0 6 9 11 10
15 2 4 -6 13 -8 19 -4 19 12 36 12 43 2 3 -6 11 -5 20 2 11 9 14 8 14 -2 0
-12 2 -12 9 0 6 9 11 10 15 2 4 -6 13 -8 19 -4 18 11 36 12 43 2 3 -5 13 -5
25 1 13 8 19 7 19 0 0 -6 5 -8 12 -4 16 10 68 11 68 1 0 -5 5 -5 12 -1 15 9
68 11 68 2 0 -3 11 -1 24 5 13 7 22 15 20 19 -2 3 0 9 5 13 6 3 7 15 2 28 -4
12 -6 40 -4 61 2 26 -2 45 -12 56 -12 14 -13 20 -4 26 8 5 10 3 4 -6 -6 -9 -4
-11 4 -5 9 5 10 10 2 18 -6 6 -11 33 -11 59 0 26 -4 48 -8 48 -5 0 -9 15 -10
32 0 18 -6 34 -11 36 -6 2 -11 8 -11 13 0 6 6 7 13 3 8 -5 7 -2 -2 9 -8 10
-11 20 -7 24 3 3 -2 15 -11 26 -10 11 -12 17 -5 13 11 -7 11 -4 0 13 -7 12
-17 21 -23 21 -5 0 -3 5 5 10 11 7 11 10 2 10 -7 0 -11 4 -7 9 3 5 1 12 -5 16
-5 3 -10 14 -10 23 0 10 -13 43 -30 75 -16 31 -26 57 -22 57 4 0 -1 5 -11 11
-9 6 -15 14 -12 20 4 5 2 9 -4 9 -9 0 -27 40 -22 49 2 2 -4 8 -13 13 -9 5 -16
16 -16 23 0 8 -6 15 -14 15 -16 0 -29 27 -21 41 4 5 -1 6 -9 3 -11 -4 -16 0
-16 10 0 9 -4 16 -10 16 -5 0 -10 7 -10 15 0 8 -7 15 -15 15 -15 0 -38 33 -30
44 3 3 2 4 -1 2 -8 -6 -72 57 -67 66 2 4 -3 5 -12 2 -11 -5 -14 -2 -9 10 5 12
2 15 -10 10 -11 -4 -16 -1 -16 11 0 9 -4 14 -9 11 -5 -3 -11 1 -15 9 -3 8 -12
12 -21 9 -11 -5 -14 -2 -9 10 4 11 1 16 -11 16 -10 0 -13 5 -9 12 4 7 3 8 -4
4 -7 -4 -22 4 -35 18 -13 14 -27 23 -30 19 -4 -3 -15 3 -25 15 -11 12 -22 19
-26 15 -3 -3 -6 -1 -6 5 0 7 -7 12 -16 12 -9 0 -12 5 -8 12 5 7 0 9 -14 6 -13
-4 -23 0 -26 8 -3 8 -12 14 -21 14 -8 0 -15 4 -15 9 0 5 -7 12 -16 15 -10 4
-13 2 -9 -7 4 -6 0 -4 -8 6 -8 9 -26 17 -41 17 -16 0 -26 6 -26 14 0 8 -8 13
-17 12 -10 -2 -24 3 -31 11 -8 7 -18 11 -23 8 -5 -4 -9 -1 -9 4 0 6 -11 11
-24 11 -14 0 -28 5 -31 10 -3 6 -15 10 -26 10 -10 0 -19 4 -19 9 0 5 -14 8
-31 7 -17 -1 -33 3 -35 9 -3 6 -15 11 -27 10 -12 -1 -25 2 -28 7 -9 14 -49 18
-49 5 0 -8 -3 -8 -8 -2 -4 6 -16 12 -27 13 -11 2 -22 7 -25 10 -3 4 -24 7 -47
6 -28 0 -43 4 -43 12 0 9 -8 10 -30 4 -17 -5 -32 -5 -35 0 -3 6 -15 6 -29 0
-15 -5 -27 -5 -35 3 -8 8 -11 7 -11 -3 0 -13 -2 -13 -9 -1 -10 16 -130 30
-160 19 -12 -4 -21 -4 -21 1 0 4 -7 8 -15 8 -8 0 -15 -4 -15 -9 0 -5 -5 -6
-11 -2 -15 9 -114 8 -129 -1 -7 -4 -16 -1 -21 6 -5 9 -9 10 -9 2z"/>
<path d="M4546 7467 c-12 -10 -14 -15 -6 -11 12 6 13 5 3 -7 -8 -10 -11 -586
-11 -2336 0 -2156 1 -2323 16 -2324 10 -1 23 -1 30 0 6 1 12 -4 12 -11 0 -9 3
-9 10 2 8 12 10 12 10 1 0 -11 3 -11 17 0 13 11 17 11 20 2 3 -7 9 -13 14 -13
6 0 8 3 6 8 -3 4 10 7 29 7 19 0 34 -4 34 -8 0 -4 9 -3 20 3 15 8 20 8 20 -1
0 -8 4 -8 15 1 11 9 15 9 15 1 0 -7 5 -9 12 -5 21 13 58 13 58 1 0 -7 4 -6 10
3 6 10 10 11 10 3 0 -7 5 -13 11 -13 5 0 8 3 6 8 -3 4 15 7 39 7 24 1 44 -4
44 -10 0 -5 5 -3 10 5 8 12 10 12 10 1 0 -11 3 -11 17 0 15 12 16 12 8 -1 -8
-13 -7 -13 9 -1 14 12 19 12 26 2 6 -11 9 -11 13 0 5 12 6 12 6 0 1 -11 4 -11
18 0 13 11 17 11 20 2 3 -7 9 -13 14 -13 6 0 8 3 6 8 -3 4 10 7 29 7 19 0 34
-4 34 -8 0 -4 9 -3 20 3 15 8 20 8 20 -1 0 -8 4 -8 15 1 11 9 15 9 15 1 0 -7
5 -9 12 -5 21 13 58 13 58 1 0 -7 4 -6 10 3 6 10 10 11 10 3 0 -7 5 -13 11
-13 5 0 8 3 6 8 -3 4 10 7 29 7 19 0 34 -3 34 -7 0 -5 5 -8 11 -8 5 0 8 3 6 8
-3 4 10 7 29 7 19 0 34 -4 34 -8 0 -4 9 -3 20 3 15 8 20 8 20 -1 0 -8 4 -8 15
1 12 10 15 10 15 0 0 -8 4 -9 13 -3 6 5 24 9 38 8 24 -1 25 1 19 31 -5 20 -3
37 3 43 7 7 7 11 1 11 -13 0 -12 43 1 52 7 5 7 8 0 8 -11 0 -12 110 -1 128 4
7 2 12 -3 12 -19 0 -12 20 7 21 14 0 14 2 2 7 -17 8 -20 53 -5 64 6 5 5 8 -3
8 -9 0 -10 5 -3 19 6 10 8 21 4 24 -8 9 -8 71 1 85 4 7 2 12 -3 12 -19 0 -12
20 7 21 15 0 15 1 -2 8 -13 5 -16 10 -8 15 6 3 8 14 5 23 -9 23 -8 66 1 81 4
7 2 12 -3 12 -19 0 -12 20 7 21 15 0 15 1 -2 8 -13 5 -16 10 -8 15 6 3 8 14 5
23 -9 23 -8 66 1 81 4 7 2 12 -3 12 -19 0 -12 20 7 21 15 0 15 1 -2 8 -13 5
-16 10 -8 15 6 3 8 14 5 23 -9 23 -8 66 1 81 4 7 2 12 -3 12 -19 0 -12 20 7
21 14 0 14 2 2 7 -17 8 -20 53 -5 64 7 5 7 8 0 8 -11 0 -12 110 -1 128 4 7 2
12 -3 12 -19 0 -12 20 7 21 14 0 14 2 2 7 -17 8 -20 53 -5 64 7 5 7 8 0 8 -6
0 -10 44 -10 112 0 91 3 114 15 120 12 5 12 7 -3 7 -14 1 -16 5 -8 19 7 13 6
23 -1 30 -9 9 -9 12 2 12 11 0 11 3 2 12 -16 16 -15 31 1 22 9 -6 9 -5 0 7
-10 12 -10 18 -1 27 9 9 9 12 0 12 -19 0 -14 20 6 21 14 0 14 2 2 7 -17 8 -20
53 -5 64 7 5 7 8 0 8 -6 0 -10 44 -10 112 0 91 3 114 15 120 12 5 12 7 -3 7
-14 1 -16 5 -8 19 7 13 6 23 -1 30 -9 9 -9 12 2 12 11 0 11 3 2 12 -16 16 -15
31 1 22 9 -6 9 -5 0 7 -10 12 -10 18 -1 27 9 9 9 12 0 12 -19 0 -14 20 6 21
14 0 14 2 2 7 -17 8 -20 53 -5 64 7 5 7 8 0 8 -13 0 -13 63 0 72 7 5 7 8 0 8
-11 0 -12 110 -1 128 4 7 2 12 -3 12 -19 0 -12 20 7 21 14 0 14 2 2 7 -17 8
-20 53 -5 64 7 5 7 8 0 8 -6 0 -10 44 -10 112 0 91 3 114 15 120 12 5 12 7 -3
7 -14 1 -16 5 -8 19 7 13 6 23 -1 30 -9 9 -9 12 2 12 11 0 11 3 2 12 -16 16
-15 31 1 22 9 -6 9 -5 0 7 -10 12 -10 18 -1 27 9 9 9 12 0 12 -19 0 -14 20 6
21 14 0 14 2 2 7 -17 8 -20 53 -5 64 7 5 7 8 0 8 -6 0 -10 44 -10 112 0 91 3
114 15 120 12 5 12 7 -3 7 -14 1 -16 5 -8 19 7 13 6 23 -1 30 -9 9 -9 12 2 12
11 0 11 3 2 12 -16 16 -15 31 1 22 9 -6 9 -5 0 7 -10 12 -10 18 -1 27 9 9 9
12 0 12 -19 0 -14 20 6 21 14 0 14 2 2 7 -17 8 -20 53 -5 64 6 5 5 8 -3 8 -9
0 -10 5 -3 19 6 10 8 21 4 24 -8 9 -8 71 1 85 4 7 2 12 -3 12 -19 0 -12 20 7
21 15 0 15 1 -2 8 -13 5 -16 10 -8 15 6 3 8 14 5 23 -9 23 -8 66 1 81 4 7 2
12 -3 12 -19 0 -12 20 7 21 15 0 15 1 -2 8 -13 5 -16 10 -8 15 6 3 8 14 5 23
-9 23 -8 66 1 81 4 7 2 12 -3 12 -19 0 -12 20 7 21 15 0 15 1 -2 8 -13 5 -16
10 -8 15 6 3 8 14 5 23 -9 23 -8 66 1 81 4 7 2 12 -3 12 -19 0 -12 20 7 21 14
0 14 2 2 7 -17 8 -20 53 -5 64 7 5 7 8 0 8 -11 0 -12 110 -1 128 4 7 2 12 -3
12 -19 0 -12 20 7 21 14 0 14 2 2 7 -17 8 -20 53 -5 64 7 5 7 8 0 8 -6 0 -9
27 -8 66 2 42 -2 70 -10 77 -9 9 -156 12 -551 12 -509 0 -541 -1 -560 -18z"/>
<path d="M6147 7478 c-13 -8 -17 -68 -5 -68 4 0 8 -9 8 -20 0 -11 4 -20 8 -20
9 0 13 -17 13 -68 0 -18 4 -30 10 -27 8 6 10 1 13 -37 1 -7 6 -16 11 -20 6 -5
5 -8 -3 -8 -9 0 -8 -7 4 -25 9 -14 12 -25 8 -25 -5 0 -1 -5 10 -11 15 -9 16
-13 5 -20 -9 -5 -10 -9 -2 -9 6 0 9 -9 6 -20 -3 -11 0 -20 6 -20 6 0 11 -11
11 -24 0 -14 5 -28 10 -31 6 -4 10 -12 9 -18 -3 -28 2 -67 9 -66 19 3 25 -2
12 -11 -12 -8 -12 -10 -1 -10 11 0 11 -3 1 -15 -9 -11 -9 -15 -1 -15 7 0 9 -4
6 -10 -3 -5 -1 -10 5 -10 6 0 8 -4 5 -10 -3 -5 -2 -10 3 -10 6 0 13 -7 16 -16
6 -15 4 -15 -11 -3 -10 7 -7 0 7 -15 14 -16 19 -26 13 -22 -16 9 -16 5 2 -41
8 -21 16 -48 18 -60 2 -12 6 -26 10 -29 4 -4 7 -18 7 -31 0 -13 4 -23 10 -23
5 0 8 -14 6 -31 -2 -18 2 -33 9 -35 11 -5 15 -17 16 -56 0 -10 4 -18 9 -18 5
0 7 -9 5 -19 -2 -11 3 -22 11 -25 12 -5 13 -10 3 -27 -8 -16 -8 -20 1 -14 7 4
11 1 9 -6 -3 -26 1 -40 10 -35 4 3 7 -7 5 -21 -1 -16 4 -32 14 -40 13 -9 13
-12 3 -13 -9 0 -10 -4 -4 -12 6 -7 9 -21 8 -31 -2 -9 1 -15 6 -11 5 3 10 -2
10 -10 1 -16 4 -28 9 -43 1 -5 2 -12 1 -17 -1 -5 4 -13 11 -17 11 -7 11 -9 0
-9 -10 0 -9 -4 3 -16 9 -9 14 -23 11 -30 -3 -7 -1 -16 4 -19 4 -3 7 -17 5 -31
-1 -15 3 -28 12 -31 8 -3 12 -12 9 -19 -3 -8 -1 -14 4 -14 5 0 7 -11 4 -25 -2
-14 0 -25 6 -25 6 0 8 -4 5 -10 -3 -5 -2 -10 4 -10 5 0 8 -8 6 -17 -1 -10 4
-31 12 -46 7 -15 11 -32 8 -36 -3 -5 -1 -11 5 -13 5 -1 10 -18 12 -35 1 -18 6
-33 11 -33 4 0 5 -4 2 -10 -3 -5 -2 -10 3 -10 5 0 8 -18 8 -39 -1 -22 2 -37 7
-34 7 4 11 -12 8 -31 -1 -5 3 -12 8 -16 6 -3 12 -21 13 -40 2 -19 7 -38 11
-41 4 -3 9 -16 10 -27 1 -12 5 -22 10 -22 5 0 7 -7 3 -15 -3 -8 -1 -15 4 -15
6 0 10 -5 10 -11 0 -5 -4 -7 -10 -4 -6 3 -7 -1 -4 -9 3 -9 10 -16 15 -16 5 0
9 -15 9 -33 0 -19 3 -37 8 -41 4 -4 7 -11 7 -14 2 -20 18 -52 26 -52 6 0 7 -5
4 -10 -4 -6 -11 -8 -16 -4 -5 3 0 -11 11 -31 11 -20 18 -40 15 -46 -4 -5 -2
-9 3 -9 6 0 13 -7 16 -16 4 -9 2 -13 -5 -8 -8 4 -7 0 0 -15 7 -11 9 -21 5 -21
-3 0 -1 -6 5 -13 6 -8 8 -17 4 -20 -3 -4 -1 -7 6 -7 7 0 11 -8 9 -18 -2 -11 4
-27 12 -37 9 -11 10 -16 3 -11 -7 4 -13 2 -13 -3 0 -6 5 -11 12 -11 6 0 8 -3
5 -7 -4 -3 0 -17 8 -29 11 -17 12 -24 2 -27 -9 -4 -9 -6 0 -6 7 -1 10 -8 7
-16 -4 -8 -1 -15 7 -15 7 0 9 -3 6 -6 -3 -4 -2 -15 3 -25 6 -10 11 -29 12 -43
1 -15 7 -26 12 -26 5 0 6 -3 3 -7 -4 -3 -2 -12 4 -20 6 -7 8 -13 4 -13 -4 0
-2 -6 4 -14 8 -10 9 -16 1 -21 -7 -4 -3 -17 12 -38 12 -17 16 -27 8 -22 -9 6
-9 2 3 -14 8 -13 13 -30 10 -37 -3 -8 -1 -14 5 -14 6 0 9 -8 8 -17 -2 -9 3
-28 10 -42 10 -20 11 -27 1 -33 -8 -5 -7 -8 5 -8 11 0 15 -7 14 -24 -2 -14 2
-27 9 -30 7 -2 11 -17 9 -35 -2 -17 1 -31 6 -31 6 0 10 -9 10 -21 0 -11 4 -18
8 -15 5 3 8 -5 7 -17 -1 -12 5 -31 14 -41 9 -11 10 -16 3 -12 -15 9 -12 -25 5
-46 6 -7 10 -24 9 -38 -1 -14 5 -31 12 -39 7 -7 11 -20 8 -28 -3 -8 -1 -11 4
-8 6 4 10 -10 10 -34 0 -32 4 -41 18 -41 14 0 15 -2 2 -10 -8 -5 -10 -10 -4
-10 7 0 10 -13 9 -30 -2 -18 1 -27 8 -23 6 4 8 -2 5 -15 -4 -13 -1 -25 6 -30
17 -10 27 -40 16 -44 -6 -2 -3 -16 5 -32 8 -15 15 -37 15 -47 0 -11 3 -19 8
-19 4 0 8 -14 8 -31 1 -17 7 -34 12 -38 6 -4 12 -23 14 -44 1 -20 6 -37 11
-37 5 0 7 -6 4 -12 -2 -7 3 -18 12 -25 12 -10 13 -12 2 -13 -11 0 -11 -3 -1
-15 7 -8 10 -22 6 -30 -3 -9 0 -18 8 -21 7 -3 12 -16 10 -30 -1 -13 3 -24 9
-24 5 0 7 -3 4 -7 -4 -3 -1 -13 6 -21 6 -9 7 -13 1 -9 -6 3 -11 0 -11 -8 0 -8
5 -13 11 -12 6 1 11 -10 11 -25 -1 -14 3 -25 7 -22 3 2 6 -9 6 -25 -1 -16 6
-37 16 -46 19 -19 22 -40 4 -29 -10 6 -10 5 -1 -8 7 -8 10 -18 6 -21 -3 -4 -1
-7 6 -7 7 0 10 -4 6 -9 -3 -5 2 -16 10 -25 10 -10 12 -17 5 -21 -8 -5 -7 -11
1 -21 6 -8 9 -17 5 -21 -3 -3 2 -15 11 -26 10 -11 12 -17 6 -13 -18 10 -16 2
7 -24 14 -16 17 -27 10 -35 -6 -7 -6 -15 2 -23 7 -7 9 -12 5 -12 -4 0 -2 -10
5 -22 7 -13 11 -27 10 -32 -2 -4 5 -15 15 -23 10 -8 13 -12 6 -9 -7 4 -11 -1
-10 -13 0 -11 5 -17 9 -15 8 5 12 -10 9 -33 -1 -8 5 -10 15 -6 12 4 15 3 10
-5 -8 -13 6 -17 17 -5 12 12 57 12 57 0 0 -7 4 -6 10 3 6 10 10 11 10 3 0 -7
5 -13 11 -13 5 0 8 3 6 8 -3 4 10 7 29 7 19 0 34 -4 34 -8 0 -4 9 -3 20 3 15
8 20 8 20 -1 0 -8 4 -8 15 1 11 9 15 9 15 1 0 -7 5 -9 12 -5 21 13 58 13 58 1
0 -7 4 -6 10 3 7 11 10 11 10 2 0 -10 5 -10 20 -2 15 8 20 8 20 -1 0 -8 4 -8
15 1 11 9 15 9 15 1 0 -7 5 -9 12 -5 20 12 58 14 58 2 0 -6 6 -5 16 3 13 10
17 10 24 0 6 -11 9 -11 13 0 5 12 6 12 6 0 1 -11 4 -11 18 0 15 12 16 12 8 -1
-8 -13 -7 -13 9 -1 14 12 19 12 26 2 6 -11 9 -11 13 0 5 12 6 12 6 0 1 -11 4
-11 18 0 13 11 17 11 20 2 3 -7 9 -13 14 -13 6 0 8 3 6 8 -3 4 10 7 29 7 19 0
34 -4 34 -8 0 -4 9 -3 20 3 15 8 20 8 20 -1 0 -8 4 -8 15 1 11 9 15 9 15 1 0
-7 5 -9 12 -5 21 13 58 13 58 1 0 -7 4 -6 10 3 6 10 10 11 10 3 0 -7 5 -13 11
-13 5 0 8 3 6 8 -3 4 15 7 39 7 24 1 44 -4 44 -10 0 -5 5 -3 10 5 8 12 10 12
10 1 0 -11 3 -11 17 0 15 12 16 12 8 -1 -8 -13 -7 -13 9 -1 14 12 19 12 26 2
6 -11 9 -11 13 0 5 12 6 12 6 0 1 -11 4 -11 18 0 13 11 17 11 20 2 3 -9 10
-10 24 -3 14 8 19 7 19 -1 0 -8 4 -8 15 1 12 10 15 10 15 0 0 -8 4 -9 13 -4
15 11 38 11 54 1 9 -6 11 -3 7 7 -3 9 -1 16 5 16 6 0 11 14 11 30 0 17 5 30
11 30 6 0 9 9 6 20 -3 11 0 26 6 33 12 12 17 28 21 57 4 31 18 70 26 70 4 0 6
16 5 34 -1 19 2 33 6 31 12 -8 18 22 7 33 -7 7 -4 14 11 21 12 7 18 17 15 26
-4 9 0 23 7 32 12 14 12 16 -1 8 -12 -7 -11 -3 3 18 9 15 15 27 11 27 -4 0 0
8 7 17 8 9 9 14 3 10 -6 -3 -11 1 -11 9 0 8 6 13 12 10 8 -3 11 5 9 20 -1 13
2 24 8 24 6 0 8 12 5 26 -2 14 2 31 10 40 8 8 11 14 7 14 -3 0 -1 7 6 15 7 8
10 15 6 15 -4 0 0 14 9 30 9 18 11 30 5 30 -6 0 -3 11 6 25 9 14 12 25 8 25
-5 0 -3 4 5 9 12 8 12 12 2 25 -12 14 -9 20 10 18 3 -1 6 4 7 11 3 23 10 62
12 67 1 3 2 9 1 13 -1 4 6 10 14 13 8 3 12 10 9 15 -2 5 0 18 7 30 6 12 7 19
2 16 -5 -4 -10 0 -10 8 0 8 4 12 8 9 10 -6 22 33 14 46 -3 5 -2 10 3 10 13 0
22 39 11 46 -6 3 -5 11 2 20 6 7 15 11 20 8 5 -3 6 2 3 11 -4 8 0 22 7 31 10
13 10 17 0 24 -10 5 -10 9 -2 11 7 3 13 11 15 19 2 8 7 26 13 39 5 14 9 35 7
48 -1 13 1 21 6 18 13 -8 18 18 8 38 -6 12 -5 17 4 15 6 -2 13 3 14 10 1 6 3
15 4 20 1 4 2 11 1 16 -1 5 4 13 11 17 11 7 11 9 0 9 -10 0 -10 4 2 16 18 18
22 39 5 28 -6 -3 0 13 13 37 13 24 25 58 27 74 2 17 8 33 13 36 6 4 8 14 5 22
-3 9 0 21 8 27 7 6 12 20 10 31 -2 10 1 19 6 19 6 0 7 4 4 10 -3 6 -3 16 2 23
9 15 14 36 14 60 0 9 5 17 10 17 6 0 7 4 4 10 -3 6 -1 10 6 10 7 0 9 3 6 7 -4
3 -1 13 6 21 10 13 9 14 -3 7 -13 -8 -13 -7 -1 8 8 10 11 20 8 24 -4 3 -2 12
4 19 5 7 12 25 15 41 2 15 7 35 11 43 3 8 7 17 7 20 1 3 7 15 14 28 9 16 10
22 1 22 -8 0 -8 4 1 15 6 8 9 18 6 24 -3 5 1 12 9 15 10 4 14 14 11 31 -3 14
0 25 6 25 6 0 8 3 5 7 -4 3 0 17 9 31 9 13 11 21 5 18 -6 -4 -11 -3 -11 3 0 5
4 11 10 13 5 2 11 17 13 33 2 17 11 44 20 61 9 17 13 34 10 37 -3 4 0 13 7 22
10 12 10 15 -1 15 -10 1 -9 4 3 10 10 6 15 19 13 30 -2 11 -1 20 3 20 4 0 8
10 9 22 1 11 8 25 15 29 10 7 10 9 -2 9 -13 1 -12 2 1 10 10 6 15 20 14 34 -2
14 3 30 10 36 7 6 11 19 8 29 -2 10 2 25 11 33 8 9 12 18 9 22 -4 3 -1 17 7
30 7 14 10 34 7 45 -3 12 -1 19 4 15 5 -3 10 0 10 5 2 12 5 26 9 39 1 4 2 11
1 16 -1 4 3 13 8 20 13 16 17 49 7 65 -6 10 -5 12 2 7 7 -4 16 9 23 38 6 25
16 43 21 40 6 -4 5 3 -1 15 -10 17 -9 21 3 21 10 0 13 6 10 15 -4 8 -1 15 6
15 10 0 10 3 0 15 -9 10 -9 15 -1 15 6 0 11 5 11 11 0 5 -6 7 -12 4 -7 -4 -5
0 4 8 10 8 15 17 11 20 -3 4 -1 7 6 7 7 0 9 5 6 10 -3 6 -1 10 5 10 7 0 9 8 5
20 -4 12 0 31 9 45 9 13 16 28 16 32 0 4 -5 1 -10 -7 -7 -10 -10 -11 -10 -2 0
7 6 15 14 18 11 4 13 12 5 30 -5 14 -5 23 -1 20 13 -8 40 55 36 82 -3 14 0 21
6 17 5 -3 10 2 11 12 1 36 8 58 19 61 8 3 7 8 -1 18 -6 8 -7 14 -2 14 5 0 10
6 11 13 6 51 16 84 29 94 9 7 11 13 4 18 -8 4 -6 12 4 22 9 9 14 22 11 29 -3
7 -1 16 5 20 6 4 5 12 -3 22 -7 9 -8 13 -2 9 12 -7 38 16 29 24 -2 3 0 21 5
40 5 19 9 37 7 40 -1 3 4 13 12 22 7 10 10 17 7 17 -4 0 -2 9 4 20 8 15 8 20
-2 20 -6 0 -3 6 7 14 10 7 20 29 22 47 5 57 6 59 18 59 6 0 10 15 10 36 -1 20
4 38 11 41 6 2 11 12 9 21 -1 9 2 26 8 37 6 11 10 33 9 48 -2 17 2 26 8 22 9
-5 15 22 11 48 0 4 5 7 12 7 8 0 7 4 -3 10 -10 6 -11 10 -3 10 7 0 12 3 12 8
-4 22 3 42 14 42 8 0 11 14 11 40 -1 22 3 40 8 40 6 0 8 9 5 20 -3 11 -1 18 3
15 10 -6 25 83 16 93 -10 9 -1137 9 -1143 -1 -2 -4 -9 -5 -14 -2 -8 5 -14 -16
-10 -37 0 -5 -4 -8 -9 -8 -7 0 -7 -6 0 -20 8 -15 8 -20 -1 -20 -7 0 -9 -3 -6
-7 4 -3 -1 -12 -11 -19 -14 -11 -14 -13 -2 -14 13 0 13 -1 0 -10 -8 -5 -10
-10 -4 -10 6 0 11 -7 11 -15 0 -10 -4 -12 -12 -5 -9 8 -11 4 -7 -16 3 -16 -1
-30 -9 -35 -12 -7 -11 -9 1 -9 12 -1 11 -3 -3 -11 -9 -6 -15 -14 -12 -19 3 -5
1 -12 -5 -15 -8 -5 -8 -11 -1 -19 7 -8 6 -20 -2 -37 -7 -13 -13 -35 -14 -48
-1 -13 -6 -27 -10 -30 -13 -10 -15 -42 -3 -56 12 -14 -3 -31 -19 -21 -4 3 -6
-6 -3 -21 4 -19 2 -24 -8 -18 -9 6 -10 3 -2 -12 6 -11 7 -25 2 -33 -5 -8 -6
-18 -4 -22 3 -4 0 -8 -7 -8 -7 0 -10 -3 -6 -6 3 -4 0 -19 -9 -35 -10 -20 -11
-29 -3 -29 8 0 9 -4 0 -13 -6 -8 -8 -17 -4 -21 4 -3 -2 -13 -13 -21 -13 -10
-15 -14 -5 -15 11 0 10 -5 -5 -21 -10 -11 -14 -20 -9 -19 21 5 25 -1 13 -14
-7 -8 -17 -12 -21 -9 -5 3 -4 -4 2 -16 9 -16 9 -21 -1 -21 -9 0 -9 -3 2 -10
11 -7 11 -10 2 -10 -7 0 -11 -4 -7 -9 3 -5 1 -12 -5 -16 -6 -4 -8 -11 -5 -16
4 -5 2 -9 -3 -9 -5 0 -8 -13 -7 -30 1 -16 -2 -30 -8 -30 -6 0 -8 -3 -4 -6 3
-4 1 -21 -6 -38 -7 -17 -13 -42 -12 -56 0 -14 -3 -28 -8 -31 -7 -5 -12 -25
-22 -84 -9 -52 -17 -80 -25 -85 -4 -3 -7 -21 -5 -39 2 -20 -4 -46 -13 -60 -9
-13 -15 -36 -13 -49 1 -14 -1 -22 -7 -18 -6 4 -9 -8 -7 -29 2 -19 0 -35 -4
-35 -8 0 -10 -9 -13 -55 -1 -14 -7 -25 -12 -25 -6 0 -4 -5 4 -10 10 -6 11 -10
3 -10 -7 0 -13 -9 -13 -19 0 -11 -4 -22 -8 -25 -5 -3 -10 -20 -11 -38 -3 -56
-4 -58 -13 -58 -5 0 -6 -4 -3 -10 3 -5 2 -10 -2 -10 -5 0 -8 -13 -7 -30 1 -17
-3 -30 -9 -30 -7 0 -5 -5 3 -10 9 -6 11 -10 3 -10 -7 0 -10 -7 -7 -15 4 -8 1
-15 -6 -15 -6 0 -9 -4 -5 -9 3 -5 1 -12 -4 -15 -5 -4 -8 -17 -6 -31 1 -14 -2
-25 -7 -25 -6 0 -8 -7 -4 -15 6 -18 -3 -47 -13 -41 -4 3 -6 -11 -5 -30 2 -23
0 -32 -8 -28 -6 4 -8 3 -5 -3 9 -14 -3 -74 -13 -68 -5 3 -6 -5 -2 -17 3 -14 2
-19 -6 -14 -9 5 -9 0 -2 -18 6 -17 6 -26 0 -26 -6 0 -9 -3 -9 -7 1 -5 0 -10
-1 -13 -8 -22 -7 -46 3 -52 8 -5 7 -8 -4 -8 -21 0 -28 -17 -24 -58 2 -24 -2
-32 -14 -32 -13 0 -13 -2 -2 -9 9 -6 10 -11 2 -15 -6 -4 -9 -12 -6 -17 4 -5 0
-9 -7 -9 -9 0 -9 -3 2 -10 8 -5 10 -10 4 -10 -11 0 -14 -15 -14 -58 0 -13 -4
-21 -9 -17 -14 8 -20 -18 -9 -39 7 -13 7 -16 -1 -12 -7 5 -10 -1 -8 -16 2 -13
-3 -28 -12 -35 -14 -11 -14 -14 -1 -23 10 -6 11 -10 3 -10 -7 0 -12 -6 -10
-12 1 -7 -4 -12 -11 -10 -10 2 -10 -2 -2 -17 7 -14 7 -22 -1 -27 -8 -5 -8 -9
1 -14 8 -5 8 -11 -3 -22 -9 -8 -18 -39 -22 -69 -4 -30 -11 -57 -17 -60 -5 -3
-10 -19 -12 -35 -1 -16 -6 -35 -10 -43 -6 -10 -5 -12 2 -7 8 5 10 2 6 -8 -3
-9 -9 -16 -14 -16 -4 0 -6 -12 -5 -27 1 -16 -3 -37 -9 -48 -5 -11 -9 -28 -7
-37 1 -10 -3 -18 -10 -18 -8 0 -7 -5 2 -17 10 -11 10 -14 2 -9 -8 4 -13 1 -13
-8 0 -9 -6 -16 -12 -16 -10 0 -10 -2 0 -9 8 -4 14 -12 14 -16 0 -4 -6 -12 -14
-16 -11 -7 -11 -9 1 -9 11 0 11 -3 0 -17 -8 -9 -14 -23 -15 -32 -1 -15 -5 -29
-24 -77 -5 -14 -4 -26 3 -33 8 -8 8 -11 -2 -11 -8 0 -11 -6 -7 -15 3 -8 1 -15
-5 -15 -6 0 -8 -4 -5 -9 3 -5 -1 -14 -9 -21 -11 -10 -18 -9 -30 4 -12 12 -13
16 -3 16 8 0 9 3 3 8 -6 4 -10 14 -10 22 1 8 -6 24 -14 34 -12 14 -12 17 -2
11 10 -6 12 -4 5 6 -5 8 -10 25 -12 39 -2 13 -8 30 -14 37 -8 9 -7 13 2 13 10
0 9 5 -2 18 -9 9 -13 23 -10 31 3 9 0 11 -8 6 -9 -6 -9 -3 -1 14 7 13 8 21 2
21 -6 0 -8 7 -5 15 4 8 1 21 -5 29 -7 8 -13 29 -15 48 -1 18 -8 43 -14 55 -9
16 -9 24 -1 29 8 5 8 9 -1 14 -12 7 -31 77 -31 113 0 10 -6 20 -13 23 -8 3
-11 16 -8 36 4 24 2 29 -9 23 -11 -7 -12 -6 -2 6 9 11 8 20 -2 39 -7 13 -11
30 -8 37 3 7 0 13 -7 13 -8 0 -11 12 -8 35 3 24 0 35 -9 35 -7 0 -13 10 -13
23 1 42 -5 86 -13 93 -4 4 -7 16 -7 26 0 10 -4 18 -9 18 -10 0 -9 19 2 37 6 9
3 11 -10 6 -14 -4 -15 -3 -7 6 12 13 8 51 -5 51 -8 0 -11 15 -12 68 -1 22 -6
32 -18 32 -11 0 -12 3 -4 8 10 6 9 13 -1 33 -7 13 -12 35 -11 47 1 13 -2 25
-6 28 -5 2 -6 11 -3 18 3 8 1 17 -5 21 -6 3 -11 22 -11 41 0 19 -4 34 -9 34
-5 0 -8 11 -5 25 3 19 0 25 -13 25 -15 0 -16 2 -3 10 12 8 12 10 1 10 -11 0
-11 3 0 17 9 11 10 14 2 9 -9 -5 -13 0 -13 16 0 48 -5 66 -14 61 -5 -4 -7 1
-3 10 4 10 0 20 -10 25 -11 7 -12 11 -4 17 9 5 9 10 0 21 -9 11 -8 14 2 14 11
0 11 2 -1 10 -8 5 -11 10 -6 10 5 0 3 7 -5 16 -7 9 -14 32 -15 52 -4 50 -8 76
-14 82 -19 19 -28 48 -17 59 8 8 8 11 -2 11 -7 0 -9 5 -6 10 4 6 0 23 -8 40
-11 21 -12 30 -3 34 6 2 4 5 -5 5 -11 1 -15 10 -13 31 1 17 -3 30 -9 30 -7 0
-5 5 3 10 11 7 11 10 2 10 -7 0 -10 5 -7 10 3 6 1 10 -6 10 -7 0 -9 10 -7 25
3 14 1 28 -4 31 -5 3 -3 13 4 22 10 12 10 14 1 8 -12 -7 -17 11 -16 52 1 7 -5
11 -12 8 -9 -3 -11 2 -7 16 4 16 2 19 -9 13 -12 -7 -12 -6 -1 7 8 10 9 18 3
22 -6 4 -8 13 -4 21 3 9 0 22 -7 30 -7 9 -10 18 -6 22 3 3 -2 15 -11 26 -17
20 -17 20 1 13 19 -7 19 -6 3 12 -10 11 -15 26 -11 36 4 11 1 16 -10 16 -9 0
-16 5 -16 11 0 5 4 8 9 4 6 -3 6 6 1 24 -4 16 -6 32 -2 35 3 4 -3 13 -14 22
-10 8 -13 12 -5 8 10 -5 12 -3 5 7 -5 8 -7 22 -6 32 2 9 -2 17 -8 17 -6 0 -8
5 -5 10 3 6 0 10 -7 10 -10 0 -10 2 -1 8 7 5 9 13 3 21 -4 8 -6 21 -2 29 4 11
1 13 -8 7 -10 -6 -12 0 -8 24 3 18 1 34 -3 37 -5 2 -6 11 -2 19 3 8 0 15 -6
15 -6 0 -11 11 -11 24 0 14 -4 27 -9 30 -5 3 -9 21 -9 38 0 41 -5 61 -15 69
-5 4 -9 23 -9 43 0 20 -4 36 -10 36 -5 0 -8 10 -6 23 2 12 -4 28 -12 35 -8 8
-9 11 -2 7 6 -3 12 -1 12 4 0 6 -8 11 -17 12 -10 0 -13 3 -8 5 12 5 7 74 -4
74 -4 0 -8 10 -8 22 -1 13 -7 24 -13 26 -8 3 -8 8 0 17 8 9 8 15 0 20 -6 3 -8
10 -5 15 3 5 -1 23 -10 40 -8 16 -15 32 -14 35 1 3 -4 18 -10 33 l-11 27 -566
0 c-311 0 -571 -3 -577 -7z"/>
</g>
</svg>
